PathFileType	4	(X/Y/Z)	/Users/itak/Documents/Research/Walk-IL/dataset/trc/00190_00008.trc
DataRate	CameraRate	NumFrames	NumMarkers	Units	OrigDataRate	OrigDataStartFrame	OrigNumFrames
100.000000	100.000000	4	53	mm	100.000000	480	769
Frame#	Time	RPSI			LPSI			L3			STRN			T10			C7			CLAV			RBAK			LBAK			LSHO			LUPA			LAEL			LAOL			LWTS			LWPS			LFRA			LIFD			LHPS			LHTS			RSHO			RUPA			RAEL			RAOL			RWTS			RWPS			RFRA			RIFD			RHTS			RHPS			RBHD			LFHD			RFHD			LBHD			LHIP			RHIP			RASI			LASI			LKNE			LTHI			LANK			LTIP			LTOE			LMT1			LMT5			LHEE			RKNE			RTHI			RANK			RTIP			RTOE			RMT1			RMT5			RHEE			
		X1	Y1	Z1	X2	Y2	Z2	X3	Y3	Z3	X4	Y4	Z4	X5	Y5	Z5	X6	Y6	Z6	X7	Y7	Z7	X8	Y8	Z8	X9	Y9	Z9	X10	Y10	Z10	X11	Y11	Z11	X12	Y12	Z12	X13	Y13	Z13	X14	Y14	Z14	X15	Y15	Z15	X16	Y16	Z16	X17	Y17	Z17	X18	Y18	Z18	X19	Y19	Z19	X20	Y20	Z20	X21	Y21	Z21	X22	Y22	Z22	X23	Y23	Z23	X24	Y24	Z24	X25	Y25	Z25	X26	Y26	Z26	X27	Y27	Z27	X28	Y28	Z28	X29	Y29	Z29	X30	Y30	Z30	X31	Y31	Z31	X32	Y32	Z32	X33	Y33	Z33	X34	Y34	Z34	X35	Y35	Z35	X36	Y36	Z36	X37	Y37	Z37	X38	Y38	Z38	X39	Y39	Z39	X40	Y40	Z40	X41	Y41	Z41	X42	Y42	Z42	X43	Y43	Z43	X44	Y44	Z44	X45	Y45	Z45	X46	Y46	Z46	X47	Y47	Z47	X48	Y48	Z48	X49	Y49	Z49	X50	Y50	Z50	X51	Y51	Z51	X52	Y52	Z52	X53	Y53	Z53	

481	4.8	423.3035583496094	1046.999755859375	-763.68701171875	507.8925476074219	1057.92236328125	-850.7233276367188	459.9103393554688	1090.064331054688	-804.36376953125	653.1177978515625	1299.83349609375	-618.2742919921875	440.4869689941406	1251.95068359375	-831.9473266601562	502.7479553222656	1518.30224609375	-787.932861328125	643.8881225585938	1414.3408203125	-643.4805297851562	373.9011535644531	1347.451049804688	-761.2960815429688	566.5151977539062	1495.117919921875	-864.1357421875	675.2553100585938	1483.878784179688	-866.4798583984375	697.8914794921875	1357.166625976562	-951.0780639648438	718.6914672851562	1144.359130859375	-975.122802734375	639.2689208984375	1121.028564453125	-942.4926147460938	810.2376098632812	913.4627075195312	-910.6502685546875	761.7066650390625	894.4639282226562	-988.3961791992188	742.7919921875	1035.913452148438	-988.2492065429688	817.1880493164062	725.6517333984375	-899.5120849609375	782.1222534179688	825.4210815429688	-980.7508544921875	834.3063354492188	836.7412719726562	-929.9564819335938	423.0580749511719	1499.390869140625	-615.6941528320312	357.2070617675781	1436.306396484375	-584.5699462890625	289.2171936035156	1150.206909179688	-566.0457763671875	360.4567565917969	1140.851806640625	-634.2868041992188	417.9269714355469	941.3240356445312	-463.7620239257812	336.8224792480469	910.5350952148438	-485.8471069335938	297.6651916503906	1077.298095703125	-531.7134399414062	469.9788208007812	756.726806640625	-456.6739196777344	440.3601379394531	850.2138061523438	-432.5792846679688	368.4972534179688	831.46923828125	-463.0058288574219	490.6260070800781	1666.92333984375	-695.0933837890625	686.1239013671875	1722.088500976562	-624.0944213867188	581.1534423828125	1705.158935546875	-550.5610961914062	594.3111572265625	1692.771728515625	-776.3994140625	668.3317260742188	1009.827697753906	-859.9450073242188	435.5863952636719	993.2430419921875	-568.2864379882812	531.3956298828125	1032.8984375	-547.9946899414062	715.16064453125	1040.831298828125	-730.5568237304688	722.5370483398438	508.53466796875	-780.5801391601562	722.8596801757812	653.1651000976562	-813.377197265625	660.4546508789062	30.10347557067871	-843.9439697265625	705.3641967773438	278.87451171875	-817.0526733398438	795.0202026367188	47.28578948974609	-670.5889282226562	728.893310546875	51.0761833190918	-672.9935302734375	763.7083129882812	26.93453216552734	-793.76171875	576.1146850585938	38.89415740966797	-832.1917114257812	562.9880981445312	502.2899475097656	-500.0942077636719	505.9413146972656	773.6730346679688	-508.1416320800781	335.8715209960938	186.308349609375	-803.4609985351562	545.9887084960938	388.6452941894531	-552.3225708007812	463.9677734375	61.13832092285156	-680.5127563476562	472.707275390625	85.70151519775391	-748.1295776367188	356.886474609375	112.9002227783203	-714.6412353515625	366.4876098632812	216.0974273681641	-874.6368408203125	
482	4.81	430.0333862304688	1047.5244140625	-761.1417846679688	515.208251953125	1058.408203125	-847.3779296875	466.5489807128906	1090.823486328125	-801.58251953125	659.0274047851562	1300.081420898438	-613.4309692382812	449.0369262695312	1252.64013671875	-829.6033325195312	511.0921936035156	1518.8857421875	-784.6585693359375	650.230224609375	1414.629028320312	-638.6065063476562	381.7431945800781	1348.186279296875	-759.8191528320312	575.7625122070312	1495.76025390625	-860.1300048828125	684.42529296875	1484.465698242188	-861.0470581054688	708.4786987304688	1357.973388671875	-945.4196166992188	730.825927734375	1145.259643554688	-969.3912353515625	650.6445922851562	1121.413818359375	-938.0213012695312	823.86083984375	915.6902465820312	-902.2584838867188	776.5382080078125	895.5802001953125	-980.4305419921875	756.166259765625	1036.874877929688	-981.6268310546875	833.2966918945312	728.4329833984375	-889.6640014648438	797.7875366210938	826.9159545898438	-972.072265625	849.2522583007812	839.3137817382812	-920.8133544921875	428.9753723144531	1499.918334960938	-613.6431884765625	362.5771789550781	1436.969360351562	-583.4453735351562	294.3590698242188	1150.7275390625	-565.77099609375	366.4339904785156	1141.471923828125	-633.2514038085938	423.8422241210938	943.344482421875	-461.4587707519531	343.2400207519531	911.5300903320312	-484.1398620605469	302.9139709472656	1077.796997070312	-531.1702880859375	478.0538635253906	759.4459838867188	-453.0664672851562	446.9872131347656	852.5722045898438	-429.7667236328125	375.6604614257812	832.8158569335938	-460.7251892089844	498.5254821777344	1667.606811523438	-691.4771118164062	693.0761108398438	1721.946166992188	-618.0853271484375	587.3260498046875	1705.038696289062	-545.7903442382812	602.8842163085938	1693.43115234375	-771.4949340820312	675.7586059570312	1009.986022949219	-855.0892333984375	440.7146301269531	994.2783203125	-565.6654663085938	536.5796508789062	1033.458740234375	-544.8172607421875	721.966064453125	1040.71923828125	-725.7821044921875	724.6796264648438	508.07666015625	-779.4000854492188	726.3639526367188	652.763916015625	-811.0968017578125	660.3826293945312	30.12963104248047	-843.8095703125	706.312744140625	278.6735229492188	-816.3759155273438	795.3164672851562	46.90299606323242	-670.2286987304688	729.2739868164062	51.28753662109375	-672.7239379882812	763.7529296875	26.96391487121582	-793.7657470703125	575.9373168945312	38.93260192871094	-831.986572265625	573.7223510742188	505.8732604980469	-489.8728332519531	512.1478881835938	776.380126953125	-502.2047119140625	359.4144592285156	178.9539184570312	-792.1863403320312	559.9688110351562	390.8594665527344	-541.0719604492188	488.6947631835938	60.81303787231445	-663.819580078125	497.9510192871094	83.79629516601562	-731.8305053710938	381.0047302246094	108.5095138549805	-701.1331787109375	390.5301818847656	207.8840179443359	-863.4232788085938	
483	4.82	436.7100524902344	1047.90625	-758.5521240234375	522.5252685546875	1058.755981445312	-843.951416015625	473.1674499511719	1091.502563476562	-798.6463012695312	664.8504028320312	1300.192260742188	-608.5623168945312	457.4654846191406	1253.18896484375	-827.1361083984375	519.3115234375	1519.336547851562	-781.290283203125	656.4661254882812	1414.778686523438	-633.6929931640625	389.476806640625	1348.78076171875	-758.23193359375	584.85009765625	1496.26953125	-856.0325317382812	693.4290771484375	1484.916381835938	-855.5543212890625	718.8607177734375	1358.647094726562	-939.702880859375	742.7184448242188	1146.043823242188	-963.6477661132812	661.9632568359375	1121.663330078125	-933.4696655273438	837.3309936523438	917.921875	-893.7627563476562	791.1893310546875	896.6259765625	-972.2886352539062	769.3265380859375	1037.740966796875	-974.9442138671875	849.404541015625	731.4102783203125	-879.470703125	813.2850952148438	828.36669921875	-963.15087890625	864.0714111328125	841.933837890625	-911.5045776367188	434.7886047363281	1500.2900390625	-611.5115966796875	367.868896484375	1437.454711914062	-582.2244873046875	299.5306091308594	1151.0693359375	-565.3883666992188	372.4360046386719	1141.908325195312	-632.1128540039062	429.63330078125	945.0675048828125	-459.08447265625	349.5016174316406	912.3489990234375	-482.3488159179688	308.1621398925781	1078.13134765625	-530.5277099609375	485.72509765625	761.82470703125	-449.4875183105469	453.3319091796875	854.606201171875	-426.9215393066406	382.5446166992188	833.97412109375	-458.3755187988281	506.2258605957031	1668.124755859375	-687.799560546875	699.8260498046875	1721.729370117188	-612.0639038085938	593.30908203125	1704.766723632812	-541.04541015625	611.2672729492188	1693.950317382812	-766.537841796875	683.17333984375	1010.083862304688	-850.1083984375	445.8175354003906	995.1281127929688	-563.0870361328125	541.7910766601562	1033.913452148438	-541.554443359375	728.6748657226562	1040.489501953125	-720.9791259765625	726.791748046875	507.6330261230469	-778.1828002929688	729.8055419921875	652.3810424804688	-808.7125244140625	660.3509521484375	30.24534606933594	-843.6365356445312	707.2354125976562	278.461181640625	-815.6773071289062	795.5484619140625	46.49192810058594	-669.872314453125	729.5665893554688	51.3613166809082	-672.4328002929688	763.7889404296875	26.98534202575684	-793.7650146484375	575.814208984375	39.09302520751953	-831.770751953125	583.8678588867188	509.43115234375	-479.7107849121094	518.1495361328125	779.0311889648438	-496.3002624511719	382.9652709960938	171.1813354492188	-780.1298217773438	573.341552734375	393.062744140625	-529.6544799804688	512.7609252929688	60.58565139770508	-645.97216796875	522.8637084960938	82.11582183837891	-713.9690551757812	404.746337890625	104.0473480224609	-686.7147216796875	414.7940368652344	199.0835571289062	-851.3863525390625	
484	4.83	443.37548828125	1048.153076171875	-755.9058227539062	529.8165283203125	1058.9765625	-840.451416015625	479.7885437011719	1092.086181640625	-795.5634155273438	670.588623046875	1300.172485351562	-603.6687622070312	465.75341796875	1253.608642578125	-824.5359497070312	527.4002075195312	1519.656494140625	-777.8247680664062	662.5986328125	1414.7978515625	-628.739013671875	397.0972290039062	1349.239624023438	-756.5205688476562	593.7681274414062	1496.64111328125	-851.83984375	702.2658081054688	1485.228881835938	-850.0028686523438	729.04541015625	1359.1923828125	-933.9320678710938	754.3653564453125	1146.708251953125	-957.880859375	673.1909790039062	1121.781494140625	-928.8461303710938	850.6224365234375	920.1626586914062	-885.1666870117188	805.6381225585938	897.6049194335938	-963.9807739257812	782.263671875	1038.513305664062	-968.1962890625	865.4729614257812	734.595703125	-868.9553833007812	828.5952758789062	829.778564453125	-954.00830078125	878.7293090820312	844.6016235351562	-902.0420532226562	440.5301818847656	1500.515380859375	-609.2819213867188	373.135009765625	1437.760986328125	-580.8865356445312	304.7411193847656	1151.243041992188	-564.8973388671875	378.4819030761719	1142.173950195312	-630.8630981445312	435.29541015625	946.4789428710938	-456.6104125976562	355.5939636230469	912.983642578125	-480.49609375	313.4063110351562	1078.309814453125	-529.7843627929688	492.9607849121094	763.8363037109375	-445.9303894042969	459.3750610351562	856.3104248046875	-424.0338745117188	389.1214904785156	834.9346313476562	-455.975830078125	513.7022705078125	1668.484252929688	-684.0650024414062	706.3801879882812	1721.441650390625	-606.0279541015625	599.1049194335938	1704.360473632812	-536.3236694335938	619.4740600585938	1694.334716796875	-761.5325317382812	690.5669555664062	1010.106750488281	-845.0401611328125	450.8888549804688	995.802978515625	-560.5512084960938	547.0037841796875	1034.2734375	-538.1891479492188	735.2886962890625	1040.159301757812	-716.134521484375	728.8678588867188	507.2039184570312	-776.920654296875	733.2255859375	652.0396728515625	-806.2002563476562	660.3325805664062	30.42745018005371	-843.4271240234375	708.1375122070312	278.2540588378906	-814.958251953125	795.735595703125	46.05504608154297	-669.5115356445312	729.77490234375	51.29451751708984	-672.1264038085938	763.815673828125	26.9999885559082	-793.75830078125	575.7489624023438	39.35394287109375	-831.5292358398438	593.3982543945312	512.9310913085938	-469.6612548828125	523.9391479492188	781.6065673828125	-490.4547729492188	406.4353637695312	163.0716094970703	-767.2300415039062	586.0477905273438	395.25634765625	-518.094482421875	536.080322265625	60.49163818359375	-626.9996337890625	547.3419799804688	80.69892883300781	-694.61767578125	428.0130920410156	99.57060241699219	-671.3767700195312	439.2106018066406	189.7867431640625	-838.4661254882812	
